<?xml version="1.0" encoding="UTF-8"?>
<svg id="Layer_1" data-name="Layer 1" xmlns="http://www.w3.org/2000/svg" viewBox="0 0 2702.62 517.01">
  <defs>
    <style>
      .cls-1 {
        fill: #fff;
      }
    </style>
  </defs>
  <g>
    <path class="cls-1" d="M793.1,132.59c0,12.19-1.62,25.56-4.86,40.09-3.24,14.54-6.37,21.81-9.38,21.81-2.35,0-3.52-1.17-3.52-3.52,0-.7.24-1.76.71-3.17,6.33-16.41,9.5-34.12,9.5-53.11,0-29.54-8.81-53.28-26.4-71.22-17.6-17.94-40.83-26.91-69.69-26.91-38.72,0-78.62,12.78-119.68,38.34,32.82,24.39,49.24,52.88,49.24,85.47,0,52.29-35.52,83.35-106.57,93.2,58.39,20.4,87.58,57.8,87.58,112.2,0,40.33-17.18,75.62-51.53,105.86-34.35,30.25-74.51,45.37-120.46,45.37-22.04,0-39.57-5.69-52.58-17.06-13.01-11.37-19.52-26.79-19.52-46.25,0-30.01,13.77-59.73,41.33-89.16,27.55-29.42,55.27-44.14,83.18-44.14,15.48,0,28.14,4.87,37.98,14.6,9.85,9.73,14.77,22.22,14.77,37.46,0,9.14-2.81,20.52-8.44,34.12-5.63,13.6-10.2,20.4-13.72,20.4-2.58,0-3.87-.93-3.87-2.81,0-.93.47-2.34,1.41-4.22,12.19-17.82,18.29-33.88,18.29-48.18,0-13.37-4.33-24.15-12.99-32.36-8.66-8.2-20-12.31-34.04-12.31-26.45,0-52.29,13.95-77.56,41.85-25.27,27.91-37.9,56.39-37.9,85.46,0,15.48,5.26,28.37,15.8,38.69,10.53,10.31,23.64,15.47,39.32,15.47,35.81,0,68.64-17.41,98.48-52.23,29.84-34.82,44.77-73.09,44.77-114.83,0-38.92-18.76-67.53-56.28-85.82l-20.4,2.46c-5.63.7-11.25,1.06-16.88,1.06-17.82,0-26.73-2.93-26.73-8.79,0-4.22,7.38-6.33,22.16-6.33,10.55,0,24.5,2.11,41.85,6.33,24.38-7.5,43.67-20.63,57.86-39.39,14.18-18.76,21.28-40.33,21.28-64.71s-9.03-44.67-27.08-63.66c-51.35,39.39-99.65,106.22-144.9,200.47-27.91,57.92-53.46,99.89-76.67,125.91-22.51,25.09-54.51,47.95-96.02,68.58-49.01,23.92-92.74,35.87-131.19,35.87-31.42,0-57.56-7.21-78.43-21.63-20.87-14.42-31.3-32.41-31.3-53.99,0-11.96,3.57-22.27,10.73-30.95,7.15-8.67,15.65-13.01,25.5-13.01,14.3,0,21.45,7.97,21.45,23.92,0,7.97-2.41,14.77-7.21,20.4-4.81,5.63-10.73,8.44-17.76,8.44-12.2,0-18.06-6.33-17.59-18.99.23-5.15-.23-7.74-1.41-7.74-3.75,0-5.63,6.22-5.63,18.64,0,19.47,9.55,35.64,28.66,48.54,19.11,12.89,43.2,19.34,72.28,19.34,51.35,0,97.89-18.99,139.63-56.98,18.05-16.41,33.76-33.59,47.13-51.52,13.37-17.94,43.96-63.48,91.8-136.64,23.21-34.93,51.11-70.46,83.71-106.57,32.59-36.11,59.9-61.78,81.95-77.02-37.05-31.18-90.74-46.78-161.08-46.78-98.95,0-185,35.76-258.15,107.27-60.03,58.62-90.04,113.84-90.04,165.66,0,26.26,8.44,47.13,25.32,62.6,16.88,15.48,39.74,23.21,68.58,23.21,47.13,0,95.84-22.63,146.14-67.88,50.3-45.25,75.44-89.21,75.44-131.89,0-33.99-17.47-51-52.4-51s-72.4,19.39-112.37,58.16c-39.98,38.78-59.97,75.26-59.97,109.46,0,8.44,2.81,15.7,8.44,21.79,5.63,6.09,12.19,9.13,19.7,9.13,3.98.7,5.98,1.64,5.98,2.81,0,2.11-2.23,3.17-6.68,3.17-11.26,0-20.75-5.09-28.49-15.29-7.74-10.19-11.6-22.66-11.6-37.42,0-36.31,20.05-71.75,60.14-106.3,40.09-34.56,81.24-51.83,123.45-51.83s60.49,18.64,60.49,55.92c0,45.49-25.67,91.44-77.02,137.87-51.35,46.43-102,69.64-151.94,69.64-32.59,0-58.68-9.79-78.26-29.37-19.58-19.58-29.37-45.78-29.37-78.61,0-66.35,37.46-126.91,112.37-181.66C216.83,51.65,299.65,24.27,390.4,24.27c68.23,0,126.14,15.36,173.74,46.07,42.91-26.73,84.41-40.09,124.5-40.09,31.42,0,56.68,9.38,75.79,28.14,19.11,18.76,28.67,43.5,28.67,74.21Z"/>
    <path class="cls-1" d="M830.21,388.46c0,.7-2.12,3.75-6.34,9.13l-15.13,18.96c-48.58,59.94-90.24,89.91-124.97,89.91-16.43,0-30.22-5.92-41.36-17.76-11.14-11.84-16.72-26.67-16.72-44.49,0-42.2,29.42-79.36,88.28-111.49,30.95-16.88,56.15-25.32,75.62-25.32,8.44,0,15.65,2.52,21.63,7.56,5.98,5.04,8.97,11.2,8.97,18.46,0,16.88-11.02,31.25-33.06,43.08-22.04,11.84-58.86,22.92-110.44,33.24-15.95,24.15-23.92,44.32-23.92,60.49,0,20.17,10.92,30.25,32.74,30.25,37.08,0,82.5-36.17,136.25-108.51,2.81-3.75,5.16-5.62,7.04-5.62.94.24,1.41.94,1.41,2.11ZM800.49,323.22c0-7.5-4.1-11.25-12.31-11.25-12.43,0-28.78,8.62-49.06,25.85-20.28,17.23-40.16,39.57-59.62,67,33.76-8.67,62.37-20.93,85.82-36.75,23.44-15.83,35.17-30.77,35.17-44.84Z"/>
    <path class="cls-1" d="M1007.47,388.46c0,.7-2.11,3.75-6.33,9.13l-15.14,18.96c-48.58,59.94-90.24,89.91-124.97,89.91-16.43,0-30.22-5.92-41.36-17.76-11.15-11.84-16.72-26.67-16.72-44.49,0-42.2,29.42-79.36,88.28-111.49,30.95-16.88,56.15-25.32,75.62-25.32,8.44,0,15.65,2.52,21.63,7.56,5.98,5.04,8.97,11.2,8.97,18.46,0,16.88-11.02,31.25-33.06,43.08-22.04,11.84-58.86,22.92-110.44,33.24-15.95,24.15-23.92,44.32-23.92,60.49,0,20.17,10.91,30.25,32.74,30.25,37.08,0,82.5-36.17,136.25-108.51,2.81-3.75,5.16-5.62,7.04-5.62.93.24,1.41.94,1.41,2.11ZM977.75,323.22c0-7.5-4.11-11.25-12.31-11.25-12.43,0-28.78,8.62-49.06,25.85-20.28,17.23-40.16,39.57-59.62,67,33.76-8.67,62.37-20.93,85.82-36.75,23.44-15.83,35.17-30.77,35.17-44.84Z"/>
    <path class="cls-1" d="M1181.92,388.11c0,3.06-16.55,22.78-49.64,59.17-36.14,39.45-66.88,59.17-92.22,59.17-16.43,0-30.51-6.28-42.24-18.82-11.74-12.54-17.6-27.49-17.6-44.84,0-19.7,7.97-40.1,23.92-61.2,15.94-21.1,37.4-39.27,64.36-54.51,22.74-13.13,41.27-19.7,55.57-19.7,17.35,0,26.03,10.32,26.03,30.95,0,16.18-5.45,32.36-16.35,48.54-10.9,16.18-21.75,24.27-32.53,24.27s-15.83-5.28-15.83-15.83c0-12.42,10.78-23.92,32.36-34.47,16.64-8.2,24.97-18.99,24.97-32.36,0-10.55-5.75-15.83-17.23-15.83-19.46,0-43.38,19.34-71.75,58.03-28.37,38.69-42.56,71.17-42.56,97.42,0,22.04,10.33,33.06,30.98,33.06,32.39,0,76.28-36.52,131.68-109.55,3.05-3.75,5.28-5.63,6.69-5.63.93.24,1.41.94,1.41,2.11Z"/>
    <path class="cls-1" d="M1406.66,387.41c0,1.88-1.18,4-3.52,6.34l-15.14,20.78c-44.13,61.29-76.99,91.93-98.59,91.93-11.27,0-20.49-4.04-27.64-12.13-7.16-8.09-10.74-18.23-10.74-30.42,0-16.41,8.91-37.86,26.73-64.36,27.9-41.03,41.85-65.42,41.85-73.16,0-9.14-4.81-13.72-14.42-13.72-14.07,0-33.3,13.84-57.68,41.5-23.45,26.5-55.69,76.67-96.72,150.53-7.04-1.41-13.01-2.11-17.94-2.11s-12.08.7-20.75,2.11l51.7-93.55c7.04-13.36,17.82-33.06,32.36-59.09,7.74-12.66,31.53-52.99,71.4-120.99l53.46-90.74c7.03,1.41,13.01,2.11,17.94,2.11,9.38,0,18.29-1.17,26.73-3.52-24.39,39.16-60.73,97.78-109.03,175.85-1.41,2.35-19.58,32.59-54.51,90.74,44.08-65.42,78.9-98.13,104.46-98.13,10.08,0,18.69,4.34,25.85,13.01,7.15,8.68,10.73,19.23,10.73,31.65,0,16.18-10.32,39.51-30.95,69.99-22.98,34-34.47,55.34-34.47,64.01,0,10.08,5.05,15.12,15.15,15.12,18.31,0,48.6-29.59,90.87-88.77l10.92-15.15,6.34-7.75c1.17-2.35,2.58-3.52,4.22-3.52.93,0,1.41.47,1.41,1.41Z"/>
  </g>
  <g>
    <path class="cls-1" d="M1965.61,108.68c0,15.25-10.55,31.07-31.65,47.48,19.22,28.37,28.84,54.51,28.84,78.43,0,5.86-1.76,8.79-5.28,8.79-2.81,0-4.22-3.87-4.22-11.61,0-23.44-8.21-47.24-24.62-71.4-34,25.32-80.25,47.19-138.75,65.59-58.51,18.41-110.38,27.61-155.63,27.61-6.33,0-11.84-.23-16.53-.7-37.52,52.29-56.27,102.7-56.27,151.23,0,33.06,10.25,59.21,30.77,78.43,20.52,19.22,48.48,28.84,83.88,28.84,66.82,0,126.38-32.01,178.67-96.02,31.65-38.69,47.48-75.38,47.48-110.08,0-18.29-5.5-32.82-16.5-43.61-11-10.78-25.63-16.18-43.89-16.18-29.26,0-60.69,15.42-94.28,46.25-33.59,30.84-50.38,59.62-50.38,86.34,0,2.35.7,3.52,2.09,3.52,1.16-.23,2.09-.7,2.79-1.41,6.28-5.63,12.08-8.44,17.43-8.44,11.85,0,17.78,6.45,17.78,19.34,0,17.36-8.44,26.03-25.32,26.03-15.48,0-23.21-9.37-23.21-28.14,0-33.53,17-66.76,51-99.71,33.99-32.94,68.46-49.42,103.4-49.42,45.02,0,67.53,24.74,67.53,74.21s-24.44,97.72-73.33,139.8c-48.89,42.09-103.11,63.13-162.66,63.13-41.5,0-76.38-13.95-104.63-41.85-28.26-27.9-42.38-62.37-42.38-103.4s13.95-80.77,41.85-122.75c-101.53-18.76-152.29-58.85-152.29-120.28,0-36.58,18.87-67.18,56.62-91.8C1511.67,12.31,1558.68,0,1614.96,0c78.55,0,157.92,26.15,238.11,78.43,13.83-2.81,28.02-4.22,42.56-4.22,46.66,0,69.99,11.49,69.99,34.47ZM1843.22,79.84c-71.28-41.27-147.14-61.9-227.56-61.9-49.71,0-93.15,11.73-130.31,35.17-37.17,23.45-55.75,50.88-55.75,82.3,0,56.04,47.6,92.27,142.79,108.68,59.09-82.3,149.36-137.04,270.82-164.25ZM1925.87,155.46c-18.06-26.03-42.33-49.12-72.8-69.29-43.85,11.96-86.64,32.53-128.37,61.72-41.74,29.19-75.97,62.43-102.7,99.71,49,0,103.23-8.97,162.66-26.91,59.44-17.94,106.51-39.68,141.21-65.24ZM1959.98,108.68c0-19.22-18.76-28.84-56.27-28.84-11.73,0-25.67,1.64-41.85,4.92,27.9,19.23,51,41.62,69.29,67.18,19.22-16.41,28.84-30.83,28.84-43.26Z"/>
    <path class="cls-1" d="M2131.44,388.81c0,1.89-7.05,10.47-21.14,25.76-17.85,19.76-34.65,29.64-50.39,29.64-17.85,0-26.78-10.31-26.78-30.95,0-6.56,1.41-14.89,4.22-24.97-14.77,12.9-26.79,25.68-36.05,38.34-9.27,12.66-25.27,38.46-48.01,77.38-12.43-.94-19.7-1.41-21.81-1.41-.94,0-8.09.47-21.45,1.41l57.68-93.55c28.84-46.89,43.26-75.97,43.26-87.22,0-6.56-2.7-9.85-8.11-9.85-13.16,0-37.01,25.26-71.54,75.79-2.12,3.29-4,4.93-5.64,4.93-.94-.23-1.41-.93-1.41-2.11.23-1.18.7-2.12,1.41-2.82l6.34-8.81c36.17-48.17,60.71-72.25,73.63-72.25,18.78,0,28.18,12.08,28.18,36.23,0,18.06-9.62,41.97-28.84,71.75,12.19-14.07,23.8-25.55,34.82-34.47,8.91-20.87,19.99-38.34,33.24-52.41,13.24-14.07,25.15-21.1,35.7-21.1,7.26,0,10.9,3.17,10.9,9.5,0,11.25-16.3,27.32-48.89,48.18-5.16,3.29-12.9,8.09-23.21,14.42l-4.22,3.52c-3.29,10.79-4.92,19.69-4.92,26.73,0,19.69,7.4,29.54,22.2,29.54,18.32,0,38.29-15.17,59.91-45.52,4.69-5.17,7.63-7.76,8.81-7.76,1.41,0,2.11.7,2.11,2.11Z"/>
    <path class="cls-1" d="M2308.35,389.17c0,.7-2.12,3.75-6.34,9.13l-15.13,18.96c-48.58,59.94-90.24,89.91-124.97,89.91-16.43,0-30.22-5.92-41.36-17.76-11.14-11.84-16.72-26.67-16.72-44.49,0-42.2,29.42-79.36,88.28-111.49,30.95-16.88,56.15-25.32,75.62-25.32,8.44,0,15.65,2.52,21.63,7.56,5.98,5.04,8.97,11.2,8.97,18.46,0,16.88-11.02,31.25-33.06,43.08-22.04,11.84-58.86,22.92-110.44,33.24-15.95,24.15-23.92,44.32-23.92,60.49,0,20.17,10.91,30.25,32.74,30.25,37.08,0,82.5-36.17,136.25-108.51,2.81-3.75,5.16-5.62,7.04-5.62.93.24,1.41.94,1.41,2.11ZM2278.63,323.92c0-7.5-4.1-11.25-12.31-11.25-12.43,0-28.78,8.62-49.06,25.85-20.28,17.23-40.16,39.57-59.62,67,33.76-8.67,62.37-20.93,85.82-36.75,23.44-15.83,35.17-30.77,35.17-44.84Z"/>
    <path class="cls-1" d="M2485.61,389.17c0,.7-2.12,3.75-6.34,9.13l-15.13,18.96c-48.58,59.94-90.24,89.91-124.97,89.91-16.43,0-30.22-5.92-41.36-17.76-11.14-11.84-16.72-26.67-16.72-44.49,0-42.2,29.42-79.36,88.28-111.49,30.95-16.88,56.15-25.32,75.62-25.32,8.44,0,15.65,2.52,21.63,7.56,5.98,5.04,8.97,11.2,8.97,18.46,0,16.88-11.02,31.25-33.06,43.08-22.04,11.84-58.86,22.92-110.44,33.24-15.95,24.15-23.92,44.32-23.92,60.49,0,20.17,10.91,30.25,32.74,30.25,37.08,0,82.5-36.17,136.25-108.51,2.81-3.75,5.16-5.62,7.04-5.62.93.24,1.41.94,1.41,2.11ZM2455.89,323.92c0-7.5-4.1-11.25-12.31-11.25-12.43,0-28.78,8.62-49.06,25.85-20.28,17.23-40.16,39.57-59.62,67,33.76-8.67,62.37-20.93,85.82-36.75,23.44-15.83,35.17-30.77,35.17-44.84Z"/>
    <path class="cls-1" d="M2672.19,139.63c-1.88,3.29-4.81,8.09-8.79,14.42-6.1,9.85-15.24,24.5-27.43,43.96-5.86,10.09-14.89,25.21-27.08,45.37l-60.49,97.77c-20.17,32.59-37.28,62.14-51.35,88.63-15.71,29.54-28.37,52.4-37.98,68.58l-4.57,7.03c-6.33-1.41-12.55-2.11-18.64-2.11-5.16,0-12.78.7-22.86,2.11,5.4-9.14,11.37-19.46,17.94-30.95l40.8-71.05c6.09-10.55,15.24-26.49,27.43-47.83l129.08-215.95c9.61,1.88,16.76,2.81,21.45,2.81s12.19-.93,22.51-2.81ZM2702.62,388.81c-.24.7-1.41,2.58-3.52,5.64l-15.14,20.78c-44.36,61.29-77.81,91.93-100.35,91.93-10.1,0-19.01-3.41-26.76-10.21-7.75-6.81-11.62-14.56-11.62-23.25,0-7.51,6.56-24.3,19.7-50.37l.35-1.41c4.45-8.68,6.68-15.14,6.68-19.37,0-5.17-3.87-9.98-11.61-14.44-8.91,3.76-16.3,5.64-22.16,5.64-8.21,0-12.31-2.35-12.31-7.05,0-3.98,3.87-5.97,11.61-5.97s14.42,1.17,20.75,3.51c11.72-5.14,30.48-22.57,56.27-52.29,13.83-15.9,28.02-23.86,42.56-23.86,17.82,0,26.73,8.44,26.73,25.32,0,11.25-4.52,22.45-13.54,33.59-9.03,11.14-18,16.71-26.91,16.71-10.08,0-15.12-4.57-15.12-13.72,0-8.44,7.62-17.46,22.86-27.08,6.33-3.98,9.5-9.61,9.5-16.88,0-5.63-3.64-8.44-10.9-8.44-10.08,0-22.74,8.89-37.98,26.66-19.46,22.22-35.29,36.02-47.48,41.4,24.38,11.28,36.58,24.31,36.58,39.1,0,8.22-5.75,24.07-17.23,47.55-4.92,9.86-7.39,16.67-7.39,20.43,0,6.11,3.87,9.16,11.61,9.16,22.04,0,58.03-37.22,107.97-111.67,1.64-2.34,3.17-3.52,4.57-3.52,1.52,0,2.29.7,2.29,2.11Z"/>
  </g>
</svg>